<mxfile host="65bd71144e">
    <diagram id="-JxvHRGv4QDo7Kms7loP" name="Page-1">
        <mxGraphModel dx="1192" dy="739" grid="1" gridSize="10" guides="1" tooltips="1" connect="1" arrows="1" fold="1" page="1" pageScale="1" pageWidth="850" pageHeight="1100" math="0" shadow="0">
            <root>
                <mxCell id="0"/>
                <mxCell id="1" parent="0"/>
                <mxCell id="3" value="Manufacturer" style="swimlane;startSize=23;" parent="1" vertex="1">
                    <mxGeometry x="25" y="40" width="200" height="1040" as="geometry"/>
                </mxCell>
                <mxCell id="5" value="Manufacturing" style="ellipse;whiteSpace=wrap;html=1;" parent="3" vertex="1">
                    <mxGeometry x="40" y="49.99810810810798" width="120" height="84.32432432432432" as="geometry"/>
                </mxCell>
                <mxCell id="4" value="" style="edgeStyle=orthogonalEdgeStyle;rounded=0;orthogonalLoop=1;jettySize=auto;html=1;" parent="3" source="5" target="6" edge="1">
                    <mxGeometry relative="1" as="geometry"/>
                </mxCell>
                <mxCell id="6" value="Modification" style="ellipse;whiteSpace=wrap;html=1;" parent="3" vertex="1">
                    <mxGeometry x="40" y="179.1848648648648" width="120" height="84.32432432432432" as="geometry"/>
                </mxCell>
                <mxCell id="7" value="Auditor" style="swimlane;" parent="1" vertex="1">
                    <mxGeometry x="225" y="40" width="200" height="1040" as="geometry"/>
                </mxCell>
                <mxCell id="15" value="Certification" style="ellipse;whiteSpace=wrap;html=1;" parent="7" vertex="1">
                    <mxGeometry x="38" y="300" width="120" height="60" as="geometry"/>
                </mxCell>
                <mxCell id="9" value="EndUser" style="swimlane;fillColor=#f5f5f5;fontColor=#333333;strokeColor=#666666;" parent="1" vertex="1">
                    <mxGeometry x="625" y="40" width="200" height="1040" as="geometry"/>
                </mxCell>
                <mxCell id="34" value="Inspection&lt;br&gt;Passed?" style="rhombus;whiteSpace=wrap;html=1;" parent="9" vertex="1">
                    <mxGeometry x="-342" y="840.0035135135134" width="80" height="80" as="geometry"/>
                </mxCell>
                <mxCell id="38" value="Shipping" style="ellipse;whiteSpace=wrap;html=1;" parent="9" vertex="1">
                    <mxGeometry x="-162" y="950.0035135135134" width="120" height="60" as="geometry"/>
                </mxCell>
                <mxCell id="27" value="Maintainance" style="ellipse;whiteSpace=wrap;html=1;" parent="9" vertex="1">
                    <mxGeometry x="45" y="710.0013513513512" width="120" height="84.32432432432432" as="geometry"/>
                </mxCell>
                <mxCell id="30" value="Repair" style="ellipse;whiteSpace=wrap;html=1;" parent="9" vertex="1">
                    <mxGeometry x="-162" y="710.0013513513512" width="120" height="84.32432432432432" as="geometry"/>
                </mxCell>
                <mxCell id="31" value="" style="edgeStyle=orthogonalEdgeStyle;rounded=0;orthogonalLoop=1;jettySize=auto;html=1;" parent="9" source="27" target="30" edge="1">
                    <mxGeometry relative="1" as="geometry"/>
                </mxCell>
                <mxCell id="32" value="Inspection" style="ellipse;whiteSpace=wrap;html=1;" parent="9" vertex="1">
                    <mxGeometry x="-362" y="722.1635135135134" width="120" height="60" as="geometry"/>
                </mxCell>
                <mxCell id="33" value="" style="edgeStyle=orthogonalEdgeStyle;rounded=0;orthogonalLoop=1;jettySize=auto;html=1;" parent="9" source="30" target="32" edge="1">
                    <mxGeometry relative="1" as="geometry"/>
                </mxCell>
                <mxCell id="46" value="" style="edgeStyle=orthogonalEdgeStyle;rounded=0;orthogonalLoop=1;jettySize=auto;html=1;" parent="9" source="44" target="27" edge="1">
                    <mxGeometry relative="1" as="geometry"/>
                </mxCell>
                <mxCell id="44" value="Utilization" style="ellipse;whiteSpace=wrap;html=1;" parent="9" vertex="1">
                    <mxGeometry x="45" y="580.0013513513512" width="120" height="84.32432432432432" as="geometry"/>
                </mxCell>
                <mxCell id="49" value="" style="edgeStyle=orthogonalEdgeStyle;rounded=0;orthogonalLoop=1;jettySize=auto;html=1;" parent="9" source="44" edge="1">
                    <mxGeometry relative="1" as="geometry">
                        <mxPoint x="-42" y="622.1635135135134" as="targetPoint"/>
                    </mxGeometry>
                </mxCell>
                <mxCell id="12" value="Order Equipment" style="ellipse;whiteSpace=wrap;html=1;" parent="9" vertex="1">
                    <mxGeometry x="35" y="113.51810810810798" width="120" height="84.32432432432432" as="geometry"/>
                </mxCell>
                <mxCell id="17" value="Audit&lt;br&gt;Passed?" style="rhombus;whiteSpace=wrap;html=1;" parent="9" vertex="1">
                    <mxGeometry x="-342" y="404.31999999999994" width="80" height="80" as="geometry"/>
                </mxCell>
                <mxCell id="20" value="Shipping" style="ellipse;whiteSpace=wrap;html=1;" parent="9" vertex="1">
                    <mxGeometry x="-562" y="399.997027027027" width="120" height="84.32432432432432" as="geometry"/>
                </mxCell>
                <mxCell id="21" value="" style="edgeStyle=orthogonalEdgeStyle;rounded=0;orthogonalLoop=1;jettySize=auto;html=1;" parent="9" source="17" target="20" edge="1">
                    <mxGeometry relative="1" as="geometry"/>
                </mxCell>
                <mxCell id="22" value="yes" style="edgeLabel;html=1;align=center;verticalAlign=middle;resizable=0;points=[];" parent="21" vertex="1" connectable="0">
                    <mxGeometry x="-0.2" y="-1" relative="1" as="geometry">
                        <mxPoint as="offset"/>
                    </mxGeometry>
                </mxCell>
                <mxCell id="26" value="" style="edgeStyle=orthogonalEdgeStyle;rounded=0;orthogonalLoop=1;jettySize=auto;html=1;" parent="9" source="20" target="25" edge="1">
                    <mxGeometry relative="1" as="geometry">
                        <Array as="points">
                            <mxPoint x="-502" y="510"/>
                        </Array>
                    </mxGeometry>
                </mxCell>
                <mxCell id="25" value="Commision" style="ellipse;whiteSpace=wrap;html=1;" parent="9" vertex="1">
                    <mxGeometry x="45" y="467.997027027027" width="120" height="84.32432432432432" as="geometry"/>
                </mxCell>
                <mxCell id="52" value="" style="ellipse;fillColor=#000000;strokeColor=none;" parent="9" vertex="1">
                    <mxGeometry x="80" y="50" width="30" height="30" as="geometry"/>
                </mxCell>
                <mxCell id="45" value="" style="edgeStyle=orthogonalEdgeStyle;rounded=0;orthogonalLoop=1;jettySize=auto;html=1;" parent="9" source="25" target="44" edge="1">
                    <mxGeometry relative="1" as="geometry"/>
                </mxCell>
                <mxCell id="36" style="edgeStyle=orthogonalEdgeStyle;rounded=0;orthogonalLoop=1;jettySize=auto;html=1;entryX=0.5;entryY=1;entryDx=0;entryDy=0;" parent="9" source="34" target="30" edge="1">
                    <mxGeometry relative="1" as="geometry"/>
                </mxCell>
                <mxCell id="37" value="No" style="edgeLabel;html=1;align=center;verticalAlign=middle;resizable=0;points=[];" parent="36" vertex="1" connectable="0">
                    <mxGeometry x="-0.232" y="-2" relative="1" as="geometry">
                        <mxPoint as="offset"/>
                    </mxGeometry>
                </mxCell>
                <mxCell id="47" style="edgeStyle=orthogonalEdgeStyle;rounded=0;orthogonalLoop=1;jettySize=auto;html=1;entryX=1;entryY=0.5;entryDx=0;entryDy=0;" parent="9" source="38" target="44" edge="1">
                    <mxGeometry relative="1" as="geometry"/>
                </mxCell>
                <mxCell id="39" value="" style="edgeStyle=orthogonalEdgeStyle;rounded=0;orthogonalLoop=1;jettySize=auto;html=1;" parent="9" source="34" target="38" edge="1">
                    <mxGeometry relative="1" as="geometry">
                        <Array as="points">
                            <mxPoint x="-302" y="980"/>
                        </Array>
                    </mxGeometry>
                </mxCell>
                <mxCell id="40" value="yes" style="edgeLabel;html=1;align=center;verticalAlign=middle;resizable=0;points=[];" parent="39" vertex="1" connectable="0">
                    <mxGeometry x="-0.1752" y="-3" relative="1" as="geometry">
                        <mxPoint x="43" y="-3" as="offset"/>
                    </mxGeometry>
                </mxCell>
                <mxCell id="35" value="" style="edgeStyle=orthogonalEdgeStyle;rounded=0;orthogonalLoop=1;jettySize=auto;html=1;" parent="9" source="32" target="34" edge="1">
                    <mxGeometry relative="1" as="geometry"/>
                </mxCell>
                <mxCell id="53" value="" style="edgeStyle=orthogonalEdgeStyle;rounded=0;orthogonalLoop=1;jettySize=auto;html=1;" parent="9" source="52" target="12" edge="1">
                    <mxGeometry relative="1" as="geometry"/>
                </mxCell>
                <mxCell id="92" value="Maintainer" style="swimlane;" parent="1" vertex="1">
                    <mxGeometry x="425" y="40" width="200" height="1040" as="geometry"/>
                </mxCell>
                <mxCell id="50" value="" style="ellipse;html=1;shape=endState;fillColor=#000000;strokeColor=#000000;" parent="92" vertex="1">
                    <mxGeometry x="128" y="607.16" width="30" height="30" as="geometry"/>
                </mxCell>
                <mxCell id="18" style="edgeStyle=orthogonalEdgeStyle;rounded=0;orthogonalLoop=1;jettySize=auto;html=1;entryX=1;entryY=0.5;entryDx=0;entryDy=0;" parent="1" source="17" target="6" edge="1">
                    <mxGeometry relative="1" as="geometry">
                        <mxPoint x="260" y="280" as="targetPoint"/>
                        <Array as="points">
                            <mxPoint x="403" y="484"/>
                            <mxPoint x="403" y="261"/>
                        </Array>
                    </mxGeometry>
                </mxCell>
                <mxCell id="19" value="No" style="edgeLabel;html=1;align=center;verticalAlign=middle;resizable=0;points=[];" parent="18" vertex="1" connectable="0">
                    <mxGeometry x="-0.0555" relative="1" as="geometry">
                        <mxPoint as="offset"/>
                    </mxGeometry>
                </mxCell>
                <mxCell id="16" value="" style="edgeStyle=orthogonalEdgeStyle;rounded=0;orthogonalLoop=1;jettySize=auto;html=1;" parent="1" source="6" target="15" edge="1">
                    <mxGeometry relative="1" as="geometry">
                        <Array as="points">
                            <mxPoint x="125" y="320"/>
                            <mxPoint x="323" y="320"/>
                        </Array>
                    </mxGeometry>
                </mxCell>
                <mxCell id="13" value="" style="edgeStyle=orthogonalEdgeStyle;rounded=0;orthogonalLoop=1;jettySize=auto;html=1;entryX=1;entryY=0;entryDx=0;entryDy=0;" parent="1" source="12" target="6" edge="1">
                    <mxGeometry relative="1" as="geometry">
                        <mxPoint x="280" y="220" as="targetPoint"/>
                        <Array as="points">
                            <mxPoint x="168" y="196"/>
                        </Array>
                    </mxGeometry>
                </mxCell>
                <mxCell id="14" value="" style="edgeStyle=orthogonalEdgeStyle;rounded=0;orthogonalLoop=1;jettySize=auto;html=1;entryX=0.5;entryY=0;entryDx=0;entryDy=0;" parent="1" source="15" target="17" edge="1">
                    <mxGeometry relative="1" as="geometry">
                        <mxPoint x="323" y="489.44999999999993" as="targetPoint"/>
                    </mxGeometry>
                </mxCell>
            </root>
        </mxGraphModel>
    </diagram>
</mxfile>